<?xml version="1.0" encoding="UTF-8"?>
<svg id="Layer_2" xmlns="http://www.w3.org/2000/svg" viewBox="0 0 208.72 177.7">
  <defs>
    <style>
      .cls-1 {
        fill: #ffcd27;
      }
    </style>
  </defs>
  <g id="Capa_1">
    <g>
      <path class="cls-1" d="M208.04,20.74c-1.11.63-2.47,1.32-3.63,1.82-4.05,1.73-12.08,5.44-16.23,5.65-6.69.34-10.4,2.33-12.73,8.7-.3.82-.92,3.37-1.25,4.17-.94,2.29-3.38,2.5-5.57,1.48-3.82-1.8-7.46-4.26-10.75-6.54-7.76-5.38-17.03-12.99-37.82-17.58-1.48-.33-4.05.83-4.08,3.71.62,1.6,2.36,3.87,2.36,3.87,0,0,17.12,3.71,20.23,6.34-1.92-.44-18.68-4.23-18.85-3.93,1.73,1.78,4.09,5.84,6.89,6.66,4.71,1.38,14.24,3.33,14.24,3.33,0,0-12.78-.68-12.63-.46,1.24,1.87,5.92,7.5,7.12,7.58,7,.46,17.06.05,17.1.24.24,1.25-15.6,1.01-15.03,1.48,1.81,1.47,7.4,5.48,9.53,6.43,4.23,1.89,7.4,4.44,8.03,8.69,1,6.8-.46,14.13-4.53,20.02-6.51,9.43-16.76,18-26.64,23.74-16.22,9.42-30.57,14.81-48.76,19.66-12.51,3.33-45.55,7.94-57.12.96-7.43-4.69-9.6-9.97-6.2-19.49,1.61-4.49,4.1-7.56,3.82-7.73-4.08,2.72-13.44,9.53-15.48,22.97-.42,5,2.02,10.46,6.29,13.44,5.81,4.06,13.17,5.29,19.9,5.78,3.37.24,5.17,1.34,6.96,4.45,1.29,2.25,2.98,4.32,4.74,6.23,11.29,12.27,25.83,20.35,42.3,23.81,14.04,2.95,27.49,1.39,40.73-3.44,14.78-5.39,27.38-16.1,36.35-28.81,5.98-7.31,8.49-20.17,10.57-27.3-.8.55-5.17,9.03-5.5,9.7-7.47,15.14-18.18,25.66-33.7,32.36-25.33,10.93-57.1,4.01-75.68-16.3-.77-.85.21-1.69,1.33-1.97,10.26-2.56,20.55-5,30.8-7.6,2.38-.6,3.01-.52,3.32,1.9.34,2.66.07,6.23.31,8.89.3,3.37,3.06,7.13,9,8.58-2.33-5.53-.94-15.03.95-16.92,2.14-2.14,7.27-1.07,5.65-6.33,0-.24.55.73,2.93-.11,2.38-.83,3.14-1.61,4.53-2.86,3.02-2.71,4.96-5.57,8.1-8.1,9-7.24,18.46-13.54,26.81-21.45,7.83-7.41,16.63-14.61,26.93-18.11,4.54-1.55,8.91-4.89,11.56-9.18,7.03-10.73,6.59-19.85,8.1-29.91.94-6.24,6.76-11.98,11.78-15.07,1.24-.76,2.41-1.64,3.6-2.47-.23-.32-.45-.65-.68-.97Z"/>
      <path class="cls-1" d="M39.06,124.5c-.02-.35.04-.74-.08-1.06-8.73-22.49-6.52-43.93,6.21-64.32.61-.97,1.58-1.71,2.5-2.49,0,.02-.01.04-.02.07,0,0,.48,6.41.48,7.21s1.36-.72,1.36-.72l.32-5.73c.67.74,1.33,1.48,1.87,2.31.52.78.62,1.89.76,2.87.7,5,1.38,5.54,6.22,5.58,4.54.04,7.25.03,10.12,4.29.15.22,1.18,1.66,2.17,1.96.55.17,5.83.08,7.48.16-.17,2.8.21,6.01-1.16,7.16-3.67,3.09-1.13,7.21-2.88,10.39-.15.28.59,1.06.94,1.59,1.21,1.84,2.39,3.7,3.68,5.49,1.43,1.98,2.59,4.94,4.53,5.62,5.16,1.83,6.21,5.24,5.95,10.05-.21,3.74.67,3.78,4.35,2.57,3.83-1.26,7.64-2.72,11.24-4.54,8.84-4.47,18.86-8.71,25.67-14.49,3.48-2.96,4.66-4.14.86-6.85-1.93-1.38-2.23-2.68-4.43-3.62-2.63-1.11-5.46-1.81-7.97-3.13-1.19-.62-4.42-1.77-4.63-3.07-.52-3.2-2.36-4.62-5.18-5.67-3.14-1.17-6.11-2.8-9.15-4.22-1.04-.49-2.05-1.2-3.14-1.38-3.06-.5-6.15-1.06-9.23-1.05-2.01,0-4.12.73-5.99,1.57-1.28.57-2.32,1.69-3.08,2.37.24-.38.43-.69.01-.7-2.68-.05-4.37-.42-5.1-1.32-3.54-4.37-.73-4.34-2.04-5.96-.46-.57-1.09-.97-1.99-1.06-.36-.04-1.13,1.05-1.57,1.09.48-1.83.82-2.45,1.2-3.9-3.19-1.71-2.61,1.61-3.79,2.21-1.21.61-3.02,1.26-4,.77-.94-.47-1.73-2.44-1.62-3.66.63-6.75,6-7.96,11.27-9.48,3.66-1.05,4.28,1.29,5.88,4.52.36-1.18,2.24.84,2.64-.16.49-1.21-.61-5.55.16-5.99,4.61-2.61,6.44-5.54,10.12-7.14,3.25-1.41,2.51-2.9,4.53-3.39,1.17-.29,3.78.69,5.09,0,1.62-.86-.85-4.38,5.52-4.53-1.08-.39,1.86-2.18.85-2.55-1.57-.57-7.9-.72-9.49-1.3,1.27-.75,16.19-1.15,17.55-1.96-.85-.44-31.11-11.03-59.54,9.05-23.2,13.76-38.67,49.71-33.09,76.37,1.4,6.68,10.59,12.02,17.65,10.19ZM78.51,73.97c-.01.13-.02.26-.03.39-.04-.11-.02-.25.03-.39ZM91.09,29.72c-1.71,5.65-4.32,6.47-9.22,2.63,3.38-.97,6.02-1.72,9.22-2.63Z"/>
      <path class="cls-1" d="M146.3,8.79c.12.22,8.29,4.24,8.29,4.24,0,0-7.62-2.87-7.22-2.1,1.12,2.13,3.2,8.07,4.42,11.46.09.25,6.32,2.95,6.32,2.95,0,0-5.69-1.4-5.65-1.23,2.03,7.45,6.33,11.96,13.56,14.26,1.33.42,3.78,1.4,5.25.24,1.47-1.16,4.48-5.24,2.56-8.29-5.79-9.17-11.69-18.69-19.8-25.96-1.63-1.46-6.49-4.76-8.16-4.31-1.67.45-1.55,4.12-1.21,4.97.49,1.23,1.01,2.62,1.64,3.78Z"/>
      <path class="cls-1" d="M79,57.82c-.72-.32-2.88.24-2.88.24-.64,2.88,1.84,2,1.84,2l1.76-.96s0-.96-.72-1.28Z"/>
      <path class="cls-1" d="M81.25,60.14c-.48.8-.96,2.88-.48,3.53.48.64,2.48.24,2.48-.16s.24-2.8.24-2.8l.4-1.44c-1.36-.16-2.16.08-2.64.88Z"/>
      <path class="cls-1" d="M88.7,58.38l-1.92,2.64.16,1.76s2.08-.08,2.64-.64,1.76-2,1.68-2.32c-.08-.32-.72-2.72-2.56-1.44Z"/>
      <polygon class="cls-1" points="93.42 61.26 93.98 61.74 95.67 61.5 95.11 59.42 93.42 60.22 93.42 61.26"/>
    </g>
  </g>
</svg>