<?xml version="1.0" encoding="UTF-8"?>
<svg id="Layer_2" xmlns="http://www.w3.org/2000/svg" viewBox="0 0 363.6 322.9">
  <defs>
    <style>
      .cls-1 {
        fill: #fff;
      }

      .cls-2 {
        fill: #ffcd27;
      }
    </style>
  </defs>
  <g id="Capa_1">
    <g>
      <path class="cls-1" d="M77.63,231.93v-26.42h-12.01v-6.51h30.48v6.51h-12.01v26.42h-6.46Z"/>
      <path class="cls-1" d="M147.74,231.93c-7.32,0-9.91-2.97-9.91-10.43v-22.49h6.41v22.49c0,2.78.96,3.97,3.49,3.97h13.09c2.54,0,3.49-1.2,3.49-3.97v-22.49h6.46v22.49c0,7.47-2.63,10.43-9.95,10.43h-13.09Z"/>
      <path class="cls-1" d="M184.51,215.75h14.96c2.3,0,3.21-1,3.21-3.88v-1.58c0-3.21-.38-4.74-3.21-4.74h-15.03c-.79,0-1.42.64-1.42,1.42v24.95h-6.51v-30.46c0-1.36,1.11-2.47,2.47-2.47h20.69c6.99,0,9.43,2.73,9.43,10.19v2.01c0,8.04-2.99,9.86-11.12,9.86l12.2,10.86h-9.09l-11.39-10.77h-5.18v-5.41Z"/>
      <path class="cls-1" d="M41.92,265.94h14.96c2.3,0,3.21-1,3.21-3.88v-1.58c0-3.21-.38-4.74-3.21-4.74h-15.03c-.79,0-1.42.64-1.42,1.42v24.95h-6.51v-30.46c0-1.36,1.11-2.47,2.47-2.47h20.69c6.99,0,9.43,2.73,9.43,10.19v2.01c0,8.04-2.99,9.86-11.12,9.86l12.2,10.86h-9.09l-11.39-10.77h-5.18v-5.41Z"/>
      <path class="cls-1" d="M269.38,265.94h14.96c2.3,0,3.21-1,3.21-3.88v-1.58c0-3.21-.38-4.74-3.21-4.74h-15.03c-.79,0-1.42.64-1.42,1.42v24.95h-6.51v-30.46c0-1.36,1.11-2.47,2.47-2.47h20.69c6.99,0,9.43,2.73,9.43,10.19v2.01c0,8.04-2.99,9.86-11.12,9.86l12.2,10.86h-9.09l-11.39-10.77h-5.18v-5.41Z"/>
      <path class="cls-1" d="M245.88,222.41c0,6.99-2.87,9.52-10.72,9.52h-20.27c.1-2.15.29-4.31.43-6.46h19.41c3.49,0,4.5-.81,4.5-3.64s-.96-3.64-4.35-3.64h-10.36c-7.9,0-10.43-2.82-10.43-8.85v-1.1c0-6.56,2.63-9.24,10.62-9.24h19.33c-.24,2.2-.53,4.36-.81,6.56h-18.51c-3.16,0-4.07,1-4.07,3.59s.91,3.64,4.07,3.64h10.17c8.18,0,11.01,2.68,11.01,8.47v1.15Z"/>
      <path class="cls-1" d="M178.85,272.57c0,6.99-2.87,9.52-10.72,9.52h-20.27c.1-2.15.29-4.31.43-6.46h19.41c3.49,0,4.5-.81,4.5-3.64s-.96-3.64-4.35-3.64h-10.36c-7.9,0-10.43-2.82-10.43-8.85v-1.1c0-6.56,2.63-9.24,10.62-9.24h19.33c-.24,2.2-.53,4.36-.81,6.56h-18.51c-3.16,0-4.07,1-4.07,3.59s.91,3.64,4.07,3.64h10.17c8.18,0,11.01,2.68,11.01,8.47v1.15Z"/>
      <path class="cls-1" d="M289.72,199v11.43c0,2.78-.96,3.97-3.49,3.97h-13.09c-2.54,0-3.49-1.2-3.49-3.97v-11.43h-6.41v11.43c0,7.47,2.58,10.43,9.91,10.43h2.72v11.06h6.46v-11.06h3.9c7.32,0,9.95-2.97,9.95-10.43v-11.43h-6.46Z"/>
      <path class="cls-1" d="M12.01,282.1v-26.42H0v-6.51h30.48v6.51h-12.01v26.42h-6.46Z"/>
      <path class="cls-1" d="M96.83,282.1v-7.66h-19.1l-.07,7.66h-6.62v-15.84c0-9.44,7.65-17.09,17.09-17.09h13.05c1.38,0,2.51,1.12,2.51,2.51v30.42h-6.85ZM95.16,255.45c-12.87-1.36-18.04,3.35-17.63,12.94h19.04s.05-11.32.05-11.32c0-.83-.63-1.53-1.46-1.62Z"/>
      <path class="cls-1" d="M137.02,281.26l-20.44-19.9v20.74h-6.17v-30.65c0-1.26,1.02-2.27,2.27-2.27h.84c.6,0,1.18.24,1.6.66l21.07,21.32v-21.98h6.22v30.17c0,1.52-1.23,2.75-2.75,2.75h-.66c-.75,0-1.46-.3-1.98-.84Z"/>
      <path class="cls-1" d="M190.23,282.1h-6.46v-24.75c0-4.52,3.66-8.18,8.18-8.18h16.52c7.56,0,9.95,2.39,9.95,10v5.96c0,6.75-2.39,9.28-9.95,9.28h-15.12v-5.89h15.12c2.58,0,3.54-1,3.54-3.35v-6.01c0-1.93-1.56-3.49-3.49-3.49h-15.62c-1.47,0-2.67,1.19-2.67,2.67v23.75Z"/>
      <path class="cls-1" d="M308.55,282.1v-26.42h-12.01v-6.51h30.49v6.51h-12.01v26.42h-6.46Z"/>
      <path class="cls-1" d="M338.43,275.64h25.17v6.46h-27.82c-2.11,0-3.81-1.71-3.81-3.81v-25.3c0-2.11,1.71-3.81,3.81-3.81h27.82v6.51h-25.17v19.96ZM339.92,262.95h19.22v5.31h-19.22v-5.31Z"/>
      <path class="cls-1" d="M121.3,231.06h-11.96c-6.46,0-11.71-5.25-11.71-11.71v-8.6c0-6.46,5.25-11.71,11.71-11.71h11.96c6.46,0,11.71,5.25,11.71,11.71v8.6c0,6.46-5.25,11.71-11.71,11.71ZM109.34,205.02c-3.16,0-5.73,2.57-5.73,5.73v8.6c0,3.16,2.57,5.73,5.73,5.73h11.96c3.16,0,5.73-2.57,5.73-5.73v-8.6c0-3.16-2.57-5.73-5.73-5.73h-11.96Z"/>
      <path class="cls-1" d="M245.83,281.19h-11.96c-6.46,0-11.71-5.25-11.71-11.71v-8.6c0-6.46,5.25-11.71,11.71-11.71h11.96c6.46,0,11.71,5.25,11.71,11.71v8.6c0,6.46-5.25,11.71-11.71,11.71ZM233.87,255.15c-3.16,0-5.73,2.57-5.73,5.73v8.6c0,3.16,2.57,5.73,5.73,5.73h11.96c3.16,0,5.73-2.57,5.73-5.73v-8.6c0-3.16-2.57-5.73-5.73-5.73h-11.96Z"/>
    </g>
    <g>
      <g>
        <path class="cls-2" d="M117.76,308.79c.92,0,1.71.15,2.36.45.65.3,1.27.78,1.86,1.45l-1.23,1.27c-.47-.46-.93-.8-1.36-1.03-.44-.22-.98-.34-1.63-.34-.81,0-1.56.25-2.26.76-.7.51-1.24,1.15-1.63,1.93s-.59,1.59-.59,2.42.19,1.64.59,2.43.93,1.43,1.63,1.93c.7.5,1.45.75,2.26.75.64,0,1.25-.14,1.84-.42.59-.28,1.08-.67,1.48-1.17l1.42,1.29c-.59.67-1.29,1.18-2.1,1.56-.81.37-1.69.56-2.64.56-1.24,0-2.36-.31-3.36-.93-1-.62-1.77-1.46-2.31-2.51-.54-1.05-.82-2.2-.82-3.47s.27-2.42.82-3.48c.54-1.06,1.32-1.9,2.31-2.52,1-.62,2.12-.93,3.36-.93Z"/>
        <path class="cls-2" d="M117.76,322.9c-1.29,0-2.47-.33-3.51-.97-1.04-.64-1.85-1.52-2.41-2.62-.56-1.08-.85-2.29-.85-3.6s.29-2.51.85-3.6c.56-1.1,1.38-1.98,2.41-2.63,1.04-.65,2.22-.97,3.51-.97.96,0,1.79.16,2.48.48.69.32,1.34.83,1.96,1.52.1.11.09.28,0,.38l-1.23,1.27c-.05.05-.12.08-.2.09-.05,0-.15-.03-.2-.08-.45-.44-.89-.77-1.3-.98-.39-.2-.9-.3-1.5-.3-.74,0-1.45.24-2.09.71-.66.48-1.18,1.09-1.55,1.83-.37.74-.56,1.51-.56,2.29s.19,1.56.56,2.3c.37.74.89,1.36,1.54,1.83,1.16.83,2.59.89,3.82.3.55-.26,1.01-.63,1.38-1.09.05-.06.12-.1.2-.11.08,0,.15.02.21.07l1.42,1.29c.11.1.12.28.02.39-.61.69-1.35,1.24-2.2,1.62-.85.39-1.77.58-2.76.58ZM117.76,309.07c-1.18,0-2.26.3-3.21.89-.95.59-1.69,1.4-2.21,2.41-.52,1.01-.79,2.14-.79,3.35s.26,2.33.79,3.34c.52,1,1.26,1.81,2.21,2.4.95.59,2.03.89,3.21.89.9,0,1.75-.18,2.52-.53.69-.31,1.3-.75,1.82-1.28l-1-.9c-.39.43-.85.77-1.38,1.02-1.41.68-3.06.6-4.38-.35-.73-.52-1.31-1.21-1.72-2.03-.41-.82-.61-1.68-.61-2.55s.21-1.73.62-2.55c.41-.82.99-1.5,1.72-2.03.74-.54,1.56-.81,2.42-.81.69,0,1.29.12,1.76.37.39.2.81.5,1.23.88l.85-.88c-.51-.54-1.04-.94-1.59-1.19-.61-.28-1.37-.43-2.24-.43Z"/>
      </g>
      <g>
        <path class="cls-2" d="M137.06,309.73c1-.63,2.1-.94,3.28-.94s2.28.31,3.28.94,1.8,1.47,2.37,2.53c.58,1.06.86,2.21.86,3.45s-.29,2.39-.86,3.46c-.58,1.06-1.37,1.9-2.37,2.53s-2.1.93-3.28.93-2.28-.31-3.28-.93-1.8-1.46-2.37-2.53c-.58-1.06-.86-2.21-.86-3.46s.29-2.39.86-3.45c.58-1.06,1.37-1.9,2.37-2.53ZM143.52,312.19c-.85-.95-1.91-1.42-3.17-1.42s-2.32.47-3.17,1.42c-.85.95-1.28,2.12-1.28,3.52s.43,2.58,1.28,3.52c.85.95,1.91,1.42,3.17,1.42s2.32-.47,3.17-1.42c.85-.95,1.28-2.12,1.28-3.52s-.43-2.58-1.28-3.52Z"/>
        <path class="cls-2" d="M140.35,322.9c-1.23,0-2.39-.33-3.43-.97-1.04-.64-1.87-1.53-2.47-2.63-.6-1.1-.9-2.31-.9-3.59s.3-2.49.9-3.58c.6-1.09,1.43-1.98,2.47-2.63,1.05-.65,2.2-.98,3.43-.98s2.39.33,3.43.98c1.04.65,1.87,1.54,2.47,2.63.6,1.09.9,2.3.9,3.58s-.3,2.49-.9,3.59c-.6,1.1-1.43,1.99-2.47,2.63-1.05.65-2.2.97-3.43.97ZM140.35,309.07c-1.13,0-2.18.3-3.14.9-.96.6-1.72,1.41-2.27,2.42-.55,1.01-.83,2.12-.83,3.31s.28,2.31.83,3.32c.55,1.01,1.31,1.83,2.27,2.42.96.59,2.01.89,3.14.89s2.18-.3,3.14-.89c.96-.59,1.72-1.41,2.27-2.42.55-1.02.83-2.13.83-3.32s-.28-2.3-.83-3.31c-.55-1.01-1.32-1.82-2.27-2.42-.96-.6-2.01-.9-3.13-.9ZM140.35,320.94c-1.34,0-2.48-.51-3.38-1.51-.89-1-1.35-2.24-1.35-3.71s.45-2.72,1.35-3.71c.9-1,2.04-1.51,3.38-1.51s2.47.51,3.38,1.51c.9,1,1.35,2.24,1.35,3.71s-.45,2.72-1.35,3.71c-.9,1-2.04,1.51-3.38,1.51ZM140.35,311.05c-1.19,0-2.16.43-2.96,1.33-.8.89-1.21,2.01-1.21,3.34s.41,2.45,1.21,3.34c.8.89,1.77,1.33,2.96,1.33s2.16-.43,2.96-1.33c.8-.89,1.21-2.01,1.21-3.34s-.41-2.45-1.21-3.34c-.8-.89-1.77-1.33-2.96-1.33Z"/>
      </g>
      <g>
        <path class="cls-2" d="M159.33,308.97h4.67c.68,0,1.29.08,1.82.25.54.17.97.38,1.31.64.33.26.61.57.83.93.22.36.37.71.45,1.07s.12.72.12,1.1c0,.58-.08,1.11-.25,1.61-.17.5-.47.97-.9,1.4s-.99.75-1.67.94l3.3,5.49h-2.17l-3.17-5.28h-2.42v5.28h-1.92v-13.44ZM164,310.7h-2.75v4.72h2.75c.82,0,1.46-.22,1.91-.66.45-.44.68-1.04.68-1.8,0-.61-.24-1.15-.71-1.59-.47-.45-1.1-.67-1.88-.67Z"/>
        <path class="cls-2" d="M169.01,322.69h-2.17c-.1,0-.19-.05-.24-.14l-3.09-5.14h-1.98v5c0,.15-.13.28-.28.28h-1.92c-.15,0-.28-.13-.28-.28v-13.44c0-.15.13-.28.28-.28h4.67c.7,0,1.35.09,1.91.26.57.18,1.04.41,1.4.69.36.28.66.62.89,1.01.23.38.4.77.48,1.15.09.37.13.76.13,1.17,0,.6-.09,1.18-.26,1.7-.18.54-.51,1.05-.97,1.51-.39.39-.88.69-1.45.9l3.12,5.19c.05.09.05.19,0,.28-.05.09-.14.14-.24.14ZM167,322.13h1.51l-3.05-5.07c-.05-.08-.05-.17-.02-.25.03-.08.1-.14.18-.17.63-.18,1.15-.47,1.55-.87.4-.4.68-.84.83-1.29.16-.47.24-.98.24-1.52,0-.36-.04-.71-.12-1.04-.08-.32-.22-.65-.42-.99-.2-.33-.45-.62-.76-.86-.31-.24-.71-.44-1.22-.6-.51-.16-1.09-.24-1.74-.24h-4.39v12.88h1.36v-5c0-.15.13-.28.28-.28h2.42c.1,0,.19.05.24.14l3.09,5.14ZM164,315.7h-2.75c-.15,0-.28-.13-.28-.28v-4.72c0-.15.13-.28.28-.28h2.75c.85,0,1.55.25,2.07.75.53.5.8,1.11.8,1.8,0,.83-.26,1.5-.77,2-.51.49-1.22.74-2.11.74ZM161.53,315.14h2.47c.75,0,1.31-.19,1.72-.58.4-.39.6-.91.6-1.59,0-.54-.2-.99-.62-1.39-.42-.4-.98-.6-1.69-.6h-2.47v4.16Z"/>
      </g>
      <g>
        <path class="cls-2" d="M185.75,308.97h3.69v1.73h-3.69c-.91,0-1.65.29-2.22.86-.57.58-.85,1.32-.85,2.23v.83h6.16v1.63h-6.16v1.38c0,.91.28,1.64.85,2.2.57.56,1.31.84,2.22.84h3.97v1.75h-3.97c-1.38,0-2.56-.46-3.53-1.37-.97-.92-1.46-2.05-1.46-3.41v-3.84c0-1.36.49-2.5,1.46-3.43.97-.93,2.15-1.39,3.53-1.39Z"/>
        <path class="cls-2" d="M189.73,322.69h-3.97c-1.45,0-2.7-.49-3.73-1.45-1.03-.97-1.55-2.18-1.55-3.61v-3.84c0-1.43.52-2.65,1.55-3.63,1.02-.98,2.28-1.47,3.73-1.47h3.69c.15,0,.28.13.28.28v1.73c0,.15-.13.28-.28.28h-3.69c-.84,0-1.5.26-2.02.78-.52.53-.77,1.19-.77,2.03v.55h5.88c.15,0,.28.13.28.28v1.63c0,.15-.13.28-.28.28h-5.88v1.1c0,.84.25,1.49.77,2,.52.51,1.18.76,2.02.76h3.97c.15,0,.28.13.28.28v1.75c0,.15-.13.28-.28.28ZM185.75,309.25c-1.3,0-2.43.44-3.34,1.32-.92.88-1.37,1.94-1.37,3.22v3.84c0,1.29.45,2.34,1.37,3.2.92.86,2.04,1.3,3.34,1.3h3.69v-1.19h-3.69c-.98,0-1.79-.31-2.41-.92-.62-.61-.94-1.42-.94-2.4v-1.38c0-.15.13-.28.28-.28h5.88v-1.07h-5.88c-.15,0-.28-.13-.28-.28v-.83c0-.98.31-1.8.94-2.42.62-.63,1.43-.95,2.42-.95h3.41v-1.17h-3.41Z"/>
      </g>
      <g>
        <path class="cls-2" d="M202.21,308.97h2.04l6.86,10.29v-10.29h1.82v13.44h-2.02l-6.86-10.29v10.29h-1.84v-13.44ZM210.06,305.38l1.34.56s-.07.09-.12.16-.17.19-.35.37c-.17.17-.35.32-.53.45-.18.13-.41.25-.68.36s-.54.16-.8.16h-.06c-.46-.01-.92-.12-1.37-.34-.45-.21-.89-.32-1.32-.32-.17,0-.35.07-.54.22s-.34.29-.44.43l-.15.21-1.32-.56s.07-.1.12-.17c.06-.08.18-.22.36-.42.19-.2.37-.38.56-.53.19-.15.41-.28.68-.41.27-.13.53-.19.79-.19h.04c.47,0,.94.11,1.4.34s.87.34,1.23.34c.17,0,.35-.05.54-.16.19-.11.35-.21.46-.32l.15-.17Z"/>
        <path class="cls-2" d="M212.93,322.69h-2.02c-.09,0-.18-.05-.23-.12l-6.34-9.52v9.37c0,.15-.13.28-.28.28h-1.84c-.15,0-.28-.13-.28-.28v-13.44c0-.15.13-.28.28-.28h2.04c.09,0,.18.05.23.12l6.34,9.52v-9.37c0-.15.13-.28.28-.28h1.82c.15,0,.28.13.28.28v13.44c0,.15-.13.28-.28.28ZM211.06,322.13h1.59v-12.88h-1.26v10.01c0,.12-.08.23-.2.27-.12.04-.25-.01-.31-.11l-6.77-10.17h-1.6v12.88h1.28v-10.01c0-.12.08-.23.2-.27.12-.04.25.01.31.11l6.77,10.17ZM205.05,307.92s-.07,0-.11-.02l-1.32-.56c-.08-.03-.14-.1-.16-.18s-.01-.17.04-.24c.03-.04.07-.1.13-.18s.19-.23.38-.44c.19-.21.39-.4.59-.56.2-.16.45-.31.73-.45.31-.15.61-.22.91-.22.55,0,1.07.12,1.56.36.42.2.79.31,1.11.31.12,0,.25-.04.4-.13.17-.1.31-.19.41-.28l.13-.15c.08-.09.21-.12.32-.07l1.34.56c.08.03.14.1.16.18.02.08.01.17-.03.24-.03.04-.08.11-.14.19-.06.07-.18.2-.36.39-.18.18-.37.34-.56.48-.2.14-.45.27-.74.39-.31.12-.61.18-.9.18-.56-.01-1.06-.14-1.55-.36-.42-.19-.82-.29-1.2-.29-.1,0-.23.06-.37.16-.17.13-.3.26-.39.37l-.15.21c-.05.07-.14.12-.23.12ZM204.17,306.97l.79.33.02-.03c.12-.16.29-.33.5-.49.24-.18.48-.28.71-.28.46,0,.94.12,1.43.34.42.19.84.3,1.26.31.27,0,.5-.05.74-.14.25-.1.46-.21.62-.32.17-.12.33-.26.49-.42.09-.09.16-.16.21-.22l-.81-.34-.02.02c-.15.14-.33.26-.53.38-.23.13-.46.2-.67.2-.4,0-.86-.12-1.35-.36-.67-.32-1.36-.44-1.98-.14-.25.12-.46.25-.63.38-.17.14-.35.31-.52.5-.11.12-.19.21-.25.29Z"/>
      </g>
      <g>
        <path class="cls-2" d="M228.64,309.73c1-.63,2.1-.94,3.28-.94s2.28.31,3.28.94,1.8,1.47,2.37,2.53c.58,1.06.86,2.21.86,3.45s-.29,2.39-.86,3.46c-.58,1.06-1.37,1.9-2.37,2.53s-2.1.93-3.28.93-2.28-.31-3.28-.93-1.8-1.46-2.37-2.53c-.58-1.06-.86-2.21-.86-3.46s.29-2.39.86-3.45c.58-1.06,1.37-1.9,2.37-2.53ZM235.1,312.19c-.85-.95-1.91-1.42-3.17-1.42s-2.32.47-3.17,1.42c-.85.95-1.28,2.12-1.28,3.52s.43,2.58,1.28,3.52c.85.95,1.91,1.42,3.17,1.42s2.32-.47,3.17-1.42c.85-.95,1.28-2.12,1.28-3.52s-.43-2.58-1.28-3.52Z"/>
        <path class="cls-2" d="M231.93,322.9c-1.23,0-2.39-.33-3.43-.97-1.04-.64-1.87-1.53-2.47-2.63-.6-1.1-.9-2.31-.9-3.59s.3-2.49.9-3.58c.6-1.09,1.43-1.98,2.47-2.63,1.05-.65,2.2-.98,3.43-.98s2.39.33,3.43.98c1.04.65,1.87,1.54,2.47,2.63.6,1.09.9,2.3.9,3.58s-.3,2.49-.9,3.59c-.6,1.1-1.43,1.99-2.47,2.63-1.05.65-2.2.97-3.43.97ZM231.93,309.07c-1.13,0-2.18.3-3.14.9-.96.6-1.72,1.41-2.27,2.42-.55,1.01-.83,2.12-.83,3.31s.28,2.31.83,3.32c.55,1.01,1.31,1.83,2.27,2.42.96.59,2.01.89,3.14.89s2.18-.3,3.14-.89c.96-.59,1.72-1.41,2.27-2.42.55-1.02.83-2.13.83-3.32s-.28-2.3-.83-3.31c-.55-1.01-1.32-1.82-2.27-2.42-.96-.6-2.01-.9-3.14-.9ZM231.93,320.94c-1.34,0-2.48-.51-3.38-1.51-.89-1-1.35-2.24-1.35-3.71s.45-2.72,1.35-3.71c.9-1,2.04-1.51,3.38-1.51s2.47.51,3.38,1.51c.89,1,1.35,2.24,1.35,3.71s-.45,2.72-1.35,3.71c-.9,1-2.04,1.51-3.38,1.51ZM231.93,311.05c-1.19,0-2.16.43-2.96,1.33-.8.89-1.21,2.01-1.21,3.34s.41,2.45,1.21,3.34c.8.89,1.77,1.33,2.96,1.33s2.16-.43,2.96-1.33c.8-.89,1.21-2.01,1.21-3.34s-.41-2.45-1.21-3.34c-.8-.89-1.77-1.33-2.96-1.33Z"/>
      </g>
    </g>
    <g>
      <path class="cls-2" d="M294.18,20.74c-1.11.63-2.47,1.32-3.63,1.82-4.05,1.73-12.08,5.44-16.23,5.65-6.69.34-10.4,2.33-12.73,8.7-.3.82-.92,3.37-1.25,4.17-.94,2.29-3.38,2.5-5.57,1.48-3.82-1.8-7.46-4.26-10.75-6.54-7.76-5.38-17.03-12.99-37.82-17.58-1.48-.33-4.05.83-4.08,3.71.62,1.6,2.36,3.87,2.36,3.87,0,0,17.12,3.71,20.23,6.34-1.92-.44-18.68-4.23-18.85-3.93,1.73,1.78,4.09,5.84,6.89,6.66,4.71,1.38,14.24,3.33,14.24,3.33,0,0-12.78-.68-12.63-.46,1.24,1.87,5.92,7.5,7.12,7.58,7,.46,17.06.05,17.1.24.24,1.25-15.6,1.01-15.03,1.48,1.81,1.47,7.4,5.48,9.53,6.43,4.23,1.89,7.4,4.44,8.03,8.69,1,6.8-.46,14.13-4.53,20.02-6.51,9.43-16.76,18-26.64,23.74-16.22,9.42-30.57,14.81-48.76,19.66-12.51,3.33-45.55,7.94-57.12.96-7.43-4.69-9.6-9.97-6.2-19.49,1.61-4.49,4.1-7.56,3.82-7.73-4.08,2.72-13.44,9.53-15.48,22.97-.42,5,2.02,10.46,6.29,13.44,5.81,4.06,13.17,5.29,19.9,5.78,3.37.24,5.17,1.34,6.96,4.45,1.29,2.25,2.98,4.32,4.74,6.23,11.29,12.27,25.83,20.35,42.3,23.81,14.04,2.95,27.49,1.39,40.73-3.44,14.78-5.39,27.38-16.1,36.35-28.81,5.98-7.31,8.49-20.17,10.57-27.3-.8.55-5.17,9.03-5.5,9.7-7.47,15.14-18.18,25.66-33.7,32.36-25.33,10.93-57.1,4.01-75.68-16.3-.77-.85.21-1.69,1.33-1.97,10.26-2.56,20.55-5,30.8-7.6,2.38-.6,3.01-.52,3.32,1.9.34,2.66.07,6.23.31,8.89.3,3.37,3.06,7.13,9,8.58-2.33-5.53-.94-15.03.95-16.92,2.14-2.14,7.27-1.07,5.65-6.33,0-.24.55.73,2.93-.11,2.38-.83,3.14-1.61,4.53-2.86,3.02-2.71,4.96-5.57,8.1-8.1,9-7.24,18.46-13.54,26.81-21.45,7.83-7.41,16.63-14.61,26.93-18.11,4.54-1.55,8.91-4.89,11.56-9.18,7.03-10.73,6.59-19.85,8.1-29.91.94-6.24,6.76-11.98,11.78-15.07,1.24-.76,2.41-1.64,3.6-2.47-.23-.32-.45-.65-.68-.97Z"/>
      <path class="cls-2" d="M125.2,124.5c-.02-.35.04-.74-.08-1.06-8.73-22.49-6.52-43.93,6.21-64.32.61-.97,1.58-1.71,2.5-2.49,0,.02-.01.04-.02.07,0,0,.48,6.41.48,7.21s1.36-.72,1.36-.72l.32-5.73c.67.74,1.33,1.48,1.87,2.31.52.78.62,1.89.76,2.87.7,5,1.38,5.54,6.22,5.58,4.54.04,7.25.03,10.12,4.29.15.22,1.18,1.66,2.17,1.96.55.17,5.83.08,7.48.16-.17,2.8.21,6.01-1.16,7.16-3.67,3.09-1.13,7.21-2.88,10.39-.15.28.59,1.06.94,1.59,1.21,1.84,2.39,3.7,3.68,5.49,1.43,1.98,2.59,4.94,4.53,5.62,5.16,1.83,6.21,5.24,5.95,10.05-.21,3.74.67,3.78,4.35,2.57,3.83-1.26,7.64-2.72,11.24-4.54,8.84-4.47,18.86-8.71,25.67-14.49,3.48-2.96,4.66-4.14.86-6.85-1.93-1.38-2.23-2.68-4.43-3.62-2.63-1.11-5.46-1.81-7.97-3.13-1.19-.62-4.42-1.77-4.63-3.07-.52-3.2-2.36-4.62-5.18-5.67-3.14-1.17-6.11-2.8-9.15-4.22-1.04-.49-2.05-1.2-3.14-1.38-3.06-.5-6.15-1.06-9.23-1.05-2.01,0-4.12.73-5.99,1.57-1.28.57-2.32,1.69-3.08,2.37.24-.38.43-.69.01-.7-2.68-.05-4.37-.42-5.1-1.32-3.54-4.37-.73-4.34-2.04-5.96-.46-.57-1.09-.97-1.99-1.06-.36-.04-1.13,1.05-1.57,1.09.48-1.83.82-2.45,1.2-3.9-3.19-1.71-2.61,1.61-3.79,2.21-1.21.61-3.02,1.26-4,.77-.94-.47-1.73-2.44-1.62-3.66.63-6.75,6-7.96,11.27-9.48,3.66-1.05,4.28,1.29,5.88,4.52.36-1.18,2.24.84,2.64-.16.49-1.21-.61-5.55.16-5.99,4.61-2.61,6.44-5.54,10.12-7.14,3.25-1.41,2.51-2.9,4.53-3.39,1.17-.29,3.78.69,5.09,0,1.62-.86-.85-4.38,5.52-4.53-1.08-.39,1.86-2.18.85-2.55-1.57-.57-7.9-.72-9.49-1.3,1.27-.75,16.19-1.15,17.55-1.96-.85-.44-31.11-11.03-59.54,9.05-23.2,13.76-38.67,49.71-33.09,76.37,1.4,6.68,10.59,12.02,17.65,10.19ZM164.64,73.97c-.01.13-.02.26-.03.39-.04-.11-.02-.25.03-.39ZM177.22,29.72c-1.71,5.65-4.32,6.47-9.22,2.63,3.38-.97,6.02-1.72,9.22-2.63Z"/>
      <path class="cls-2" d="M232.43,8.79c.12.22,8.29,4.24,8.29,4.24,0,0-7.62-2.87-7.22-2.1,1.12,2.13,3.2,8.07,4.42,11.46.09.25,6.32,2.95,6.32,2.95,0,0-5.69-1.4-5.65-1.23,2.03,7.45,6.33,11.96,13.56,14.26,1.33.42,3.78,1.4,5.25.24,1.47-1.16,4.48-5.24,2.56-8.29-5.79-9.17-11.69-18.69-19.8-25.96-1.63-1.46-6.49-4.76-8.16-4.31-1.67.45-1.55,4.12-1.21,4.97.49,1.23,1.01,2.62,1.64,3.78Z"/>
      <path class="cls-2" d="M165.14,57.82c-.72-.32-2.88.24-2.88.24-.64,2.88,1.84,2,1.84,2l1.76-.96s0-.96-.72-1.28Z"/>
      <path class="cls-2" d="M167.38,60.14c-.48.8-.96,2.88-.48,3.53.48.64,2.48.24,2.48-.16s.24-2.8.24-2.8l.4-1.44c-1.36-.16-2.16.08-2.64.88Z"/>
      <path class="cls-2" d="M174.83,58.38l-1.92,2.64.16,1.76s2.08-.08,2.64-.64,1.76-2,1.68-2.32c-.08-.32-.72-2.72-2.56-1.44Z"/>
      <polygon class="cls-2" points="179.56 61.26 180.12 61.74 181.8 61.5 181.24 59.42 179.56 60.22 179.56 61.26"/>
    </g>
  </g>
</svg>